name analog
datacolumns 19
datarows 46
range 0.0 0.0225
endheader
time	ground_force_vx	ground_force_vy	ground_force_vz	ground_force_px	ground_force_py	ground_force_pz	l_ground_force_vx	l_ground_force_vy	l_ground_force_vz	l_ground_force_px	l_ground_force_py	l_ground_force_pz	ground_torque_x	ground_torque_y	ground_torque_z	l_ground_torque_x	l_ground_torque_y	l_ground_torque_z
0.0	-0.0	-0.0	-0.0	7.243264198303223	15.10603141784668	-402.5229187011719	-8.871078491210938	-16.860116958618164	-391.1972351074219	-0.0	-0.0	-0.0	-0.0	-0.0	-0.0	135642.328125	-1340.349365234375	-6497.62109375
0.0005	-0.0	-0.0	-0.0	7.306735515594482	15.24981689453125	-402.0356750488281	-8.908221244812012	-16.111526489257812	-389.6531982421875	-0.0	-0.0	-0.0	-0.0	-0.0	-0.0	135968.140625	-1434.626220703125	-6495.8193359375
0.001	-0.0	-0.0	-0.0	6.903059482574463	15.589365005493164	-401.21240234375	-9.15565586090088	-17.00017547607422	-391.15869140625	-0.0	-0.0	-0.0	-0.0	-0.0	-0.0	136077.546875	-1367.9090576171875	-6454.09375
0.0015	-0.0	-0.0	-0.0	7.097945213317871	15.57268524169922	-401.7527770996094	-9.128064155578612	-16.66547966003418	-392.061279296875	-0.0	-0.0	-0.0	-0.0	-0.0	-0.0	135670.484375	-1353.9093017578125	-6536.81396484375
0.002	-0.0	-0.0	-0.0	7.184358596801758	15.73442554473877	-401.0143432617188	-9.36694622039795	-16.004343032836914	-388.7131958007813	-0.0	-0.0	-0.0	-0.0	-0.0	-0.0	135724.71875	-1518.525146484375	-6524.64501953125
0.0025	-0.0	-0.0	-0.0	6.699082851409912	15.574987411499023	-401.49993896484375	-9.349010467529297	-16.32147979736328	-390.35150146484375	-0.0	-0.0	-0.0	-0.0	-0.0	-0.0	135492.71875	-1464.9117431640625	-6513.275390625
0.003	-0.0	-0.0	-0.0	6.634435176849365	15.516897201538086	-401.0218505859375	-8.649825096130371	-16.41889762878418	-388.7117614746094	-0.0	-0.0	-0.0	-0.0	-0.0	-0.0	135569.34375	-1409.0087890625	-6503.74560546875
0.0035	-0.0	-0.0	-0.0	7.096086025238037	15.581533432006836	-401.9187622070313	-9.225505828857422	-16.330638885498047	-389.7935180664063	-0.0	-0.0	-0.0	-0.0	-0.0	-0.0	135538.421875	-1120.8798828125	-6510.1142578125
0.004	-0.0	-0.0	-0.0	6.869209289550781	15.549189567565918	-401.1802978515625	-8.977527618408203	-16.50732421875	-390.3165893554688	-0.0	-0.0	-0.0	-0.0	-0.0	-0.0	135739.9375	-1287.3104248046875	-6509.9677734375
0.0045000000000000005	-0.0	-0.0	-0.0	6.64171314239502	16.068443298339844	-399.9585876464844	-9.217132568359377	-16.16286849975586	-390.66607666015625	-0.0	-0.0	-0.0	-0.0	-0.0	-0.0	135648.5	-1224.850830078125	-6391.3681640625
0.005	-0.0	-0.0	-0.0	7.03166389465332	16.294910430908203	-401.6288146972656	-9.199684143066406	-15.941441535949709	-389.7908935546875	-0.0	-0.0	-0.0	-0.0	-0.0	-0.0	135701.671875	-1130.7042236328125	-6554.646484375
0.0055	-0.0	-0.0	-0.0	6.438965797424316	15.403764724731444	-400.98443603515625	-8.897082328796387	-15.941052436828612	-391.3989868164063	-0.0	-0.0	-0.0	-0.0	-0.0	-0.0	135715.71875	-1258.122314453125	-6691.26220703125
0.006	-0.0	-0.0	-0.0	7.0976433753967285	15.435224533081056	-401.21240234375	-9.208715438842772	-16.10291290283203	-391.3312683105469	-0.0	-0.0	-0.0	-0.0	-0.0	-0.0	136003.375	-1276.7471923828125	-6432.45556640625
0.006500000000000001	-0.0	-0.0	-0.0	6.811180591583252	15.80723476409912	-401.4113159179688	-9.048500061035156	-15.578702926635742	-391.6133728027344	-0.0	-0.0	-0.0	-0.0	-0.0	-0.0	136125.921875	-1267.8450927734375	-6592.94677734375
0.007	-0.0	-0.0	-0.0	6.624723434448242	16.07093620300293	-400.30560302734375	-9.33159065246582	-15.9524564743042	-391.0164489746094	-0.0	-0.0	-0.0	-0.0	-0.0	-0.0	135753.625	-1020.6432495117188	-6685.09716796875
0.0075	-0.0	-0.0	-0.0	7.055301666259766	15.826889991760254	-402.7961120605469	-9.70757293701172	-16.04935073852539	-391.0166015625	-0.0	-0.0	-0.0	-0.0	-0.0	-0.0	136117.171875	-1287.926513671875	-6628.88232421875
0.008	-0.0	-0.0	-0.0	6.772391319274902	15.330429077148438	-401.5957336425781	-9.394970893859863	-16.024534225463867	-392.0313720703125	-0.0	-0.0	-0.0	-0.0	-0.0	-0.0	136349.328125	-1298.0	-6588.9013671875
0.0085	-0.0	-0.0	-0.0	6.832689762115479	15.842649459838867	-402.859130859375	-9.411635398864746	-15.90615940093994	-392.4464111328125	-0.0	-0.0	-0.0	-0.0	-0.0	-0.0	136116.21875	-1129.6849365234375	-6682.36962890625
0.009000000000000001	-0.0	-0.0	-0.0	7.084455490112305	15.939388275146484	-401.3605346679688	-9.492053985595703	-15.577467918395996	-390.8630065917969	-0.0	-0.0	-0.0	-0.0	-0.0	-0.0	136503.703125	-1145.29541015625	-6623.0302734375
0.0095	-0.0	-0.0	-0.0	7.010606288909912	15.352622985839844	-400.593994140625	-9.081183433532717	-15.994359970092772	-392.6347961425781	-0.0	-0.0	-0.0	-0.0	-0.0	-0.0	136534.453125	-1121.920654296875	-6738.79345703125
0.01	-0.0	-0.0	-0.0	7.100142478942871	15.508689880371094	-403.4522399902344	-9.0728178024292	-16.32337188720703	-392.06536865234375	-0.0	-0.0	-0.0	-0.0	-0.0	-0.0	136630.546875	-1079.2066650390625	-6685.0078125
0.0105	-0.0	-0.0	-0.0	6.534254550933838	15.44142723083496	-401.2701721191406	-9.137210845947266	-16.323457717895508	-393.811279296875	-0.0	-0.0	-0.0	-0.0	-0.0	-0.0	136391.8125	-1098.001220703125	-6566.39697265625
0.011	-0.0	-0.0	-0.0	6.444803237915039	15.41235065460205	-404.00927734375	-9.145193099975586	-16.34745979309082	-393.2075500488281	-0.0	-0.0	-0.0	-0.0	-0.0	-0.0	136446.78125	-1452.9161376953125	-6625.7373046875
0.0115	-0.0	-0.0	-0.0	6.341098308563232	15.262735366821287	-402.7666931152344	-9.218002319335938	-16.604476928710938	-392.2843017578125	-0.0	-0.0	-0.0	-0.0	-0.0	-0.0	136832.953125	-1267.0810546875	-6652.8701171875
0.012	-0.0	-0.0	-0.0	6.505258560180664	15.68695068359375	-400.5060424804688	-8.959789276123047	-16.70848274230957	-393.555908203125	-0.0	-0.0	-0.0	-0.0	-0.0	-0.0	137049.53125	-1230.546142578125	-6571.63623046875
0.0125	-0.0	-0.0	-0.0	6.444242477416992	16.10451316833496	-401.26806640625	-8.975381851196289	-16.669511795043945	-394.4799499511719	-0.0	-0.0	-0.0	-0.0	-0.0	-0.0	137065.625	-1528.8721923828125	-6639.7197265625
0.013000000000000001	-0.0	-0.0	-0.0	6.759045600891113	16.029516220092773	-402.2166748046875	-8.878830909729004	-16.354949951171875	-394.8294677734375	-0.0	-0.0	-0.0	-0.0	-0.0	-0.0	137042.703125	-1215.254150390625	-6593.29296875
0.0135	-0.0	-0.0	-0.0	6.594672203063965	16.283266067504883	-401.0232849121094	-9.241270065307615	-16.80404281616211	-395.2396240234375	-0.0	-0.0	-0.0	-0.0	-0.0	-0.0	136970.109375	-1288.2283935546875	-6547.19384765625
0.014	-0.0	-0.0	-0.0	6.4778828620910645	15.570201873779297	-402.6251220703125	-9.46922492980957	-16.420257568359375	-395.7685241699219	-0.0	-0.0	-0.0	-0.0	-0.0	-0.0	137162.109375	-1179.3221435546875	-6620.89697265625
0.0145	-0.0	-0.0	-0.0	6.278720855712891	16.174196243286133	-401.6463317871094	-9.167475700378418	-16.435367584228516	-394.8905029296875	-0.0	-0.0	-0.0	-0.0	-0.0	-0.0	137135.859375	-1216.0703125	-6734.31103515625
0.015	-0.0	-0.0	-0.0	6.429873466491699	15.809635162353516	-400.2858581542969	-8.893538475036621	-16.773666381835938	-395.2101745605469	-0.0	-0.0	-0.0	-0.0	-0.0	-0.0	137005.859375	-1142.7215576171875	-6722.1689453125
0.0155	-0.0	-0.0	-0.0	5.597586631774902	16.284273147583008	-401.2914123535156	-9.580764770507812	-16.920808792114258	-393.61077880859375	-0.0	-0.0	-0.0	-0.0	-0.0	-0.0	137018.390625	-1341.08251953125	-6668.2685546875
0.016	-0.0	-0.0	-0.0	6.029979705810547	16.099584579467773	-401.9710998535156	-9.292492866516112	-16.273231506347656	-393.9591979980469	-0.0	-0.0	-0.0	-0.0	-0.0	-0.0	136971.796875	-1281.5142822265625	-6700.0087890625
0.0165	-0.0	-0.0	-0.0	6.231677055358887	16.51302146911621	-401.3157958984375	-9.255121231079102	-16.77385139465332	-393.5226135253906	-0.0	-0.0	-0.0	-0.0	-0.0	-0.0	137054.40625	-998.3238525390624	-6662.9111328125
0.017	-0.0	-0.0	-0.0	6.174983501434326	16.367591857910156	-401.745361328125	-9.218664169311523	-16.361186981201172	-394.8619384765625	-0.0	-0.0	-0.0	-0.0	-0.0	-0.0	136729.53125	-1077.9058837890625	-6653.0302734375
0.0175	-0.0	-0.0	-0.0	6.582356452941895	15.897217750549316	-402.70123291015625	-9.218743324279783	-15.933639526367188	-394.5978393554688	-0.0	-0.0	-0.0	-0.0	-0.0	-0.0	137124.984375	-1228.6484375	-6573.5576171875
0.018000000000000002	-0.0	-0.0	-0.0	6.346630573272705	16.13260269165039	-402.32220458984375	-9.24014949798584	-16.215776443481445	-394.5413208007813	-0.0	-0.0	-0.0	-0.0	-0.0	-0.0	136670.90625	-1318.1583251953125	-6571.20068359375
0.0185	-0.0	-0.0	-0.0	5.894191741943359	16.22173309326172	-400.5808410644531	-9.137210845947266	-16.042539596557617	-393.521728515625	-0.0	-0.0	-0.0	-0.0	-0.0	-0.0	136847.984375	-1166.170166015625	-6605.447265625
0.019	-0.0	-0.0	-0.0	6.435592651367188	16.062108993530273	-403.9639892578125	-9.225921630859377	-16.244230270385742	-394.2472229003906	-0.0	-0.0	-0.0	-0.0	-0.0	-0.0	136981.09375	-1291.767333984375	-6653.0947265625
0.0195	-0.0	-0.0	-0.0	6.232426643371582	15.98508644104004	-402.72259521484375	-9.29384994506836	-16.027606964111328	-394.5140686035156	-0.0	-0.0	-0.0	-0.0	-0.0	-0.0	137243.640625	-1496.2635498046875	-6675.82373046875
0.02	-0.0	-0.0	-0.0	6.3987135887146	16.636857986450195	-401.9913330078125	-9.321516036987305	-16.183429718017578	-393.6293640136719	-0.0	-0.0	-0.0	-0.0	-0.0	-0.0	137119.5	-1430.960205078125	-6781.046875
0.0205	-0.0	-0.0	-0.0	6.43521785736084	16.13260269165039	-403.2598571777344	-9.642258644104004	-16.149320602416992	-395.8575744628906	-0.0	-0.0	-0.0	-0.0	-0.0	-0.0	137235.859375	-1206.7147216796875	-6742.42138671875
0.021	-0.0	-0.0	-0.0	6.429123878479004	15.96030330657959	-401.9423828125	-9.560542106628418	-16.33951187133789	-395.4826965332031	-0.0	-0.0	-0.0	-0.0	-0.0	-0.0	137190.140625	-1139.5328369140625	-6685.3583984375
0.021500000000000002	-0.0	-0.0	-0.0	6.518256187438965	15.365732192993164	-400.71588134765625	-9.669475555419922	-16.045936584472656	-395.8592529296875	-0.0	-0.0	-0.0	-0.0	-0.0	-0.0	137286.265625	-1315.4561767578125	-6774.353515625
0.022	-0.0	-0.0	-0.0	6.851680278778076	16.477449417114258	-402.8395385742188	-9.587382316589355	-15.999402046203612	-394.6194458007813	-0.0	-0.0	-0.0	-0.0	-0.0	-0.0	137297.65625	-1347.64599609375	-6719.380859375
0.0225	-0.0	-0.0	-0.0	6.690788269042969	16.29927635192871	-398.0797424316406	-9.396769523620604	-15.979680061340332	-395.3172607421875	-0.0	-0.0	-0.0	-0.0	-0.0	-0.0	137179.65625	-1134.501220703125	-6664.27978515625
